<svg xmlns="http://www.w3.org/2000/svg" viewBox="0 0 512 512">
  <defs>
    <linearGradient id="grad1" x1="0%" y1="0%" x2="100%" y2="100%">
      <stop offset="0%" style="stop-color:#38bdf8;stop-opacity:1" />
      <stop offset="100%" style="stop-color:#3b82f6;stop-opacity:1" />
    </linearGradient>
    <filter id="glow" x="-20%" y="-20%" width="140%" height="140%">
      <feGaussianBlur stdDeviation="5" result="blur" />
      <feComposite in="SourceGraphic" in2="blur" operator="over" />
    </filter>
  </defs>
  
  <!-- Background Shield -->
  <path d="M256 32C174 32 103 48 48 80v160c0 144 86 270 208 320 122-50 208-176 208-320V80c-55-32-126-48-208-48z" 
        fill="none" 
        stroke="url(#grad1)" 
        stroke-width="12"
        filter="url(#glow)" 
        opacity="0.8"/>
        
  <!-- Inner Circuitry / Data Lines -->
  <path d="M128 160h256M128 224h256M128 288h256" 
        stroke="#38bdf8" 
        stroke-width="4" 
        stroke-linecap="round"
        opacity="0.3"/>
        
  <!-- Binary Data Stream -->
  <text x="50%" y="150" font-family="monospace" font-size="40" fill="#4ade80" text-anchor="middle" filter="url(#glow)">10110</text>
  <text x="50%" y="220" font-family="monospace" font-size="40" fill="#4ade80" text-anchor="middle" filter="url(#glow)">01001</text>
  <text x="50%" y="290" font-family="monospace" font-size="40" fill="#f87171" text-anchor="middle" filter="url(#glow)">11011</text>
  
  <!-- Checkmark/Shield Center -->
  <path d="M256 448c-60-25-104-78-104-144 0-15 12-24 24-24s24 9 24 24c0 35 24 64 56 78 32-14 56-43 56-78 0-15 12-24 24-24s24 9 24 24c0 66-44 119-104 144z" 
        fill="#38bdf8"
        display="none"/> 
        
  <!-- Magnifying Glass / Inspection -->
  <circle cx="256" cy="224" r="90" stroke="#f8fafc" stroke-width="8" fill="rgba(15, 23, 42, 0.6)" />
  <path d="M316 284l60 60" stroke="#f8fafc" stroke-width="8" stroke-linecap="round" />
  
  <!-- Correct/Error Indicators inside Lens -->
  <text x="256" y="240" font-family="Arial" font-weight="bold" font-size="80" fill="#4ade80" text-anchor="middle">✓</text>
</svg>
